<svg xmlns="http://www.w3.org/2000/svg" viewBox="0 0 64 64" width="64" height="64">
  <defs>
    <linearGradient id="ocean" x1="0%" y1="0%" x2="100%" y2="100%">
      <stop offset="0%" stop-color="#0077B6" />
      <stop offset="100%" stop-color="#00B4D8" />
    </linearGradient>
    <linearGradient id="sun" x1="0%" y1="100%" x2="100%" y2="0%">
      <stop offset="0%" stop-color="#FFB703" />
      <stop offset="100%" stop-color="#FB8500" />
    </linearGradient>
  </defs>
  <circle cx="32" cy="32" r="30" fill="url(#ocean)" stroke="#90E0EF" stroke-width="2.5" />
  <circle cx="32" cy="24" r="13" fill="url(#sun)" />
  <polygon points="28,45 36,45 34,18 30,18" fill="#FFFFFF" />
  <polygon points="28.5,39 35.5,39 35,33 29,33" fill="#E63946" />
  <polygon points="29.5,28 34.5,28 34,23 30,23" fill="#E63946" />
  <rect x="29" y="15" width="6" height="4" rx="1" fill="#1D3557" />
  <circle cx="32" cy="15" r="2.5" fill="#FFD166" />
  <path d="M 4,42 Q 18,36 32,42 T 60,42 L 60,58 Q 46,62 32,62 Q 18,62 4,58 Z" fill="#023E8A" />
  <path d="M 6,48 Q 20,44 32,48 T 58,48" fill="none" stroke="#90E0EF" stroke-width="2" stroke-linecap="round" />
</svg>
